<svg width="40" height="38" viewBox="0 0 40 38" fill="none" xmlns="http://www.w3.org/2000/svg">
<path fill-rule="evenodd" clip-rule="evenodd" d="M3.73 18.93C3.73 19.0706 3.66548 19.1962 3.56443 19.2787L3.5797 19.2911C2.1522 20.1915 1.33 21.2489 1.33 22.38C1.33 25.5124 7.63569 28.0795 15.6402 28.3127L12.4728 25.1454C12.2867 24.9593 12.2867 24.6576 12.4728 24.4715C12.6589 24.2854 12.9606 24.2854 13.1467 24.4715L17.0048 28.3296C25.4847 28.2936 32.33 25.6437 32.33 22.38C32.33 21.2635 31.5289 20.2189 30.1354 19.3261L30.1495 19.3153C30.0753 19.2351 30.03 19.1278 30.03 19.01C30.03 18.7615 30.2315 18.56 30.48 18.56C30.5673 18.56 30.6487 18.5848 30.7177 18.6278L30.7185 18.6261C32.3713 19.7087 33.33 20.9972 33.33 22.38C33.33 26.193 26.04 29.2888 17.0104 29.3296L13.147 33.1931C12.9609 33.3791 12.6592 33.3791 12.4731 33.1931C12.287 33.007 12.287 32.7053 12.4731 32.5192L15.6789 29.3133C7.10324 29.0644 0.330002 26.0554 0.330002 22.38C0.330002 20.9924 1.29547 19.6997 2.9589 18.6147C3.04056 18.5316 3.15426 18.48 3.28 18.48C3.52853 18.48 3.73 18.6815 3.73 18.93Z" fill="#0962E8"/>
<path fill-rule="evenodd" clip-rule="evenodd" d="M26.9084 20.6841C26.9225 20.7302 26.93 20.7792 26.93 20.83C26.93 21.1061 26.7062 21.33 26.43 21.33H7.23003C6.95388 21.33 6.73003 21.1061 6.73003 20.83C6.73003 20.7793 6.73758 20.7303 6.75164 20.6841C6.73732 20.5013 6.73003 20.3165 6.73003 20.13C6.73003 16.264 9.86403 13.13 13.73 13.13H19.93H19.93C23.796 13.13 26.93 16.264 26.93 20.13C26.93 20.3165 26.9227 20.5013 26.9084 20.6841ZM7.7333 20.33C7.73112 20.2636 7.73003 20.1969 7.73003 20.13C7.73003 16.8163 10.4163 14.13 13.73 14.13C13.7937 14.13 13.8571 14.131 13.9203 14.133C13.9566 14.131 13.9932 14.13 14.03 14.13H19.53C19.5792 14.13 19.628 14.1318 19.6763 14.1353C19.7604 14.1318 19.845 14.13 19.93 14.13H19.93C23.2437 14.13 25.93 16.8163 25.93 20.13C25.93 20.1969 25.9289 20.2636 25.9267 20.33H7.7333Z" fill="#0962E8"/>
<path fill-rule="evenodd" clip-rule="evenodd" d="M16.83 9.33C19.3153 9.33 21.33 7.31528 21.33 4.83C21.33 2.34472 19.3153 0.33 16.83 0.33C14.3447 0.33 12.33 2.34472 12.33 4.83C12.33 7.31528 14.3447 9.33 16.83 9.33ZM16.83 8.33C18.763 8.33 20.33 6.763 20.33 4.83C20.33 2.897 18.763 1.33 16.83 1.33C14.897 1.33 13.33 2.897 13.33 4.83C13.33 6.763 14.897 8.33 16.83 8.33Z" fill="#0962E8"/>
</svg>
