<svg width="40" height="41" viewBox="0 0 40 41" fill="none" xmlns="http://www.w3.org/2000/svg">
<path fill-rule="evenodd" clip-rule="evenodd" d="M29.8704 20.3653C29.3262 20.294 27.8841 20.1048 26.6499 21.56C24.9899 19.68 22.9899 20.48 22.9899 20.48C22.9899 20.48 21.9899 20.83 21.4899 21.48C21.2772 21.6928 20.7422 22.2705 20.45 23.48C19.99 24.98 20.79 26.98 20.79 26.98C20.79 26.98 21.39 28.48 22.21 29.48C24.19 31.98 26.3299 32.9799 26.6599 32.98C26.9899 33.01 28.4899 32.08 29.0224 31.6C29.5549 31.22 30.455 30.284 30.9899 29.61C31.4899 28.98 32.1269 27.9414 32.3299 27.48C32.9896 25.9807 32.9898 24.9808 32.9899 24.4806V24.48C32.9899 23.98 32.909 22.9881 32.2199 21.98C31.3208 20.6646 30.1996 20.401 29.9899 20.38C29.9572 20.3767 29.9171 20.3715 29.8704 20.3653ZM26.9899 22.7801C26.816 22.9301 26.5312 22.9431 26.3899 22.8301C26.3157 22.7707 26.2628 22.6892 26.1964 22.587C26.0662 22.3865 25.8845 22.1068 25.3899 21.7601C24.4021 21.0676 23.5689 21.37 23.5689 21.37C23.5689 21.37 22.7308 21.5265 22.19 22.18C22.18 22.1921 22.1697 22.2045 22.1591 22.2172C21.9162 22.5092 21.5333 22.9696 21.3799 23.88C21.12 25.33 21.84 26.9266 21.84 26.9266C21.84 26.9266 22.3299 27.98 23.0399 28.93C24.6778 30.9005 25.8339 31.5038 26.5164 31.86C26.5632 31.8844 26.6077 31.9076 26.6499 31.93C27.4972 31.5492 28.0831 31.0778 28.5243 30.7228C28.5465 30.7049 28.5684 30.6873 28.5899 30.67C29.0383 30.29 29.7395 29.5977 30.1899 29.03C30.611 28.4995 31.0699 27.7362 31.2699 27.3476C31.852 26.1106 31.9317 25.3651 31.9806 24.9071C31.9838 24.8772 31.9869 24.8486 31.9899 24.8211C31.99 24.4001 31.9899 23.48 31.4899 22.6801C30.9099 21.6715 29.9899 21.35 29.4637 21.3301C29.2094 21.3046 28.6278 21.28 27.9899 21.7101C27.6833 21.9339 27.2797 22.2947 26.9899 22.7801Z" fill="#0962E8"/>
<path fill-rule="evenodd" clip-rule="evenodd" d="M15.8539 17.8206C15.846 17.8202 15.838 17.82 15.83 17.82C15.8239 17.82 15.8178 17.8201 15.8118 17.8203C7.16013 17.782 0.437828 24.1232 0.329987 31.3302C0.329987 31.4242 0.331124 31.5179 0.333388 31.6114C0.331141 31.6306 0.329987 31.6502 0.329987 31.67C0.329987 31.9461 0.553844 32.17 0.829987 32.17C1.10404 32.17 1.3266 31.9495 1.32995 31.6763L1.33562 31.6758C1.33187 31.5608 1.32999 31.4455 1.32999 31.3297C1.43116 24.6516 7.74237 18.7763 15.8618 18.8204L15.8618 18.819C16.1232 18.8026 16.33 18.5854 16.33 18.32C16.33 18.0653 16.1396 17.8551 15.8933 17.824L15.8934 17.8209C15.8802 17.8207 15.8671 17.8206 15.8539 17.8206Z" fill="#0962E8"/>
<path fill-rule="evenodd" clip-rule="evenodd" d="M17.465 12.98C20.9582 12.98 23.79 10.1482 23.79 6.655C23.79 3.1618 20.9582 0.33 17.465 0.33C13.9718 0.33 11.14 3.1618 11.14 6.655C11.14 10.1482 13.9718 12.98 17.465 12.98ZM17.465 11.98C20.4059 11.98 22.79 9.59592 22.79 6.655C22.79 3.71408 20.4059 1.33 17.465 1.33C14.5241 1.33 12.14 3.71408 12.14 6.655C12.14 9.59592 14.5241 11.98 17.465 11.98Z" fill="#0962E8"/>
</svg>
