<svg width="40" height="40" viewBox="0 0 40 40" fill="none" xmlns="http://www.w3.org/2000/svg">
<path fill-rule="evenodd" clip-rule="evenodd" d="M17.53 34.7296V34.73C17.5251 34.73 17.5203 34.73 17.5154 34.73C17.5136 34.73 17.5118 34.73 17.51 34.73C17.5078 34.73 17.5056 34.73 17.5034 34.73C8.01632 34.7156 0.330002 27.0204 0.330002 17.53H0.334274C0.334301 17.4551 0.351225 17.3791 0.386917 17.3075C0.510131 17.0603 0.810354 16.9599 1.05748 17.0831L6.62397 19.8584C6.8711 19.9817 6.97156 20.2819 6.84834 20.529C6.72513 20.7761 6.42491 20.8766 6.17778 20.7534L1.35022 18.3464C1.77549 26.9141 8.85678 33.73 17.53 33.73V33.7304C17.7969 33.7409 18.01 33.9606 18.01 34.23C18.01 34.4995 17.7969 34.7191 17.53 34.7296ZM33.7097 16.7124C33.2839 8.14526 26.2028 1.33 17.53 1.33C17.2539 1.33 17.03 1.10614 17.03 0.83C17.03 0.553858 17.2539 0.33 17.53 0.33C27.0293 0.33 34.73 8.0307 34.73 17.53H34.721C34.7204 17.6038 34.7035 17.6785 34.6683 17.749C34.5451 17.9961 34.2449 18.0966 33.9978 17.9734L28.4313 15.198C28.1841 15.0748 28.0837 14.7746 28.2069 14.5275C28.3301 14.2803 28.6303 14.1799 28.8775 14.3031L33.7097 16.7124Z" fill="#0962E8"/>
<path fill-rule="evenodd" clip-rule="evenodd" d="M26.08 32.33C29.5318 32.33 32.33 29.5318 32.33 26.08C32.33 22.6282 29.5318 19.83 26.08 19.83C22.6282 19.83 19.83 22.6282 19.83 26.08C19.83 29.5318 22.6282 32.33 26.08 32.33ZM26.08 31.33C28.9795 31.33 31.33 28.9795 31.33 26.08C31.33 23.1805 28.9795 20.83 26.08 20.83C23.1805 20.83 20.83 23.1805 20.83 26.08C20.83 28.9795 23.1805 31.33 26.08 31.33Z" fill="#0962E8"/>
<path fill-rule="evenodd" clip-rule="evenodd" d="M8.98003 15.23C12.4318 15.23 15.23 12.4318 15.23 8.98002C15.23 5.52824 12.4318 2.73002 8.98003 2.73002C5.52825 2.73002 2.73003 5.52824 2.73003 8.98002C2.73003 12.4318 5.52825 15.23 8.98003 15.23ZM8.98003 14.23C11.8795 14.23 14.23 11.8795 14.23 8.98002C14.23 6.08053 11.8795 3.73002 8.98003 3.73002C6.08053 3.73002 3.73003 6.08053 3.73003 8.98002C3.73003 11.8795 6.08053 14.23 8.98003 14.23Z" fill="#0962E8"/>
</svg>
