<svg width="40" height="40" viewBox="0 0 40 40" fill="none" xmlns="http://www.w3.org/2000/svg">
<path fill-rule="evenodd" clip-rule="evenodd" d="M9.17 0.33C3 0.5 0.33 3 0.33 5L0.33 23.6378V28.39C0.33 29.59 1.33 30.53 1.33 30.53C2.7 32 5.95994 33.0012 9.17 33C12.6 32.9988 15.5 32 17 30.53C17 30.53 17.25 30.295 17.5 29.91C17.75 30.295 18 30.53 18 30.53C19.37 32 22.6299 33.0012 25.84 33C29.27 32.9988 32.17 32 33.67 30.53C33.67 30.53 34.67 29.59 34.67 28.39L34.65 16.68C34.65 14.09 30.7 11.9982 25.82 12C22.4228 12.0013 19.4733 13.0178 18 14.5117V12.5V5C18 3 15.5 0.5 9.17 0.33ZM17.0106 7.17657C15.7627 8.4725 13.2696 9.5599 9.17 9.67C5.36025 9.55577 2.67917 8.57022 1.33 7.20778V10.8945C1.5 13 5.34 14.5 9.17 14.5C13 14.5 16.9 13 17 10.89V7.2L17.0106 7.17657ZM17 16.74V16.68V13.03C15.5 14.5 12.6 15.5 9.17 15.5C5.95994 15.5 2.7 14.5 1.33 13.03V16.74C1.5 18.85 5.34 20.3516 9.17 20.35C13 20.3484 16.9 18.85 17 16.74ZM18 18.88C19.37 20.35 22.63 21.3512 25.84 21.35C29.27 21.3488 32.17 20.35 33.67 18.88V22.56C33.57 24.67 29.67 26.1684 25.84 26.17C22.01 26.1716 18.17 24.67 18 22.56V18.88ZM18 16.67C18 14.65 21.5 13 25.82 13.03C30.15 13 33.65 14.65 33.67 16.67C33.65 18.7 30.15 20.3484 25.84 20.35C21.5 20.3516 18 18.7 18 16.67ZM18 28.39C18.17 30.5 22.01 32.0016 25.84 32C29.67 31.9984 33.57 30.5 33.67 28.39V24.7C32.17 26.17 29.27 27.1688 25.84 27.17C22.6299 27.1712 19.37 26.17 18 24.7V28.39ZM1.33 5C1.33 6.7 4.14 8.54 9.17 8.67C14.78 8.56 17 6.44 17 5C17 3.56 14.78 1.46 9.17 1.33C3.7 1.46 1.33 3.5 1.33 5ZM1.33 28.39V24.7C2.7 26.17 5.95994 27.1712 9.17 27.17C12.6 27.1688 15.5 26.17 17 24.7V28.39C16.9 30.5 13 31.9984 9.17 32C5.34 32.0016 1.5 30.5 1.33 28.39ZM9.17 26.17C5.34 26.1716 1.5 24.67 1.33 22.56V18.88C2.7 20.35 5.96 21.3512 9.17 21.35C12.6 21.3488 15.5 20.35 17 18.88V22.56C16.9 24.67 13 26.1684 9.17 26.17Z" fill="#0962E8"/>
</svg>
